Motion_pl14
version=1
nRows=15
nColumns=43
inDegrees=yes
endheader
time	pelvis_tilt	pelvis_list	pelvis_rotation	pelvis_tx	pelvis_ty	pelvis_tz	hip_flexion_r	hip_adduction_r	hip_rotation_r	knee_angle_r	ankle_angle_r	subtalar_angle_r	mtp_angle_r	hip_flexion_l	hip_adduction_l	hip_rotation_l	knee_angle_l	ankle_angle_l	subtalar_angle_l	mtp_angle_l	lumbar_extension	lumbar_bending	lumbar_rotation	neck_flexion	neck_lateral_bending	neck_rotation	arm_flex_r	arm_add_r	arm_rot_r	elbow_flex_r	pro_sup_r	wrist_flex_r	wrist_dev_r	hand_finger_flex_r	arm_flex_l	arm_add_l	arm_rot_l	elbow_flex_l	pro_sup_l	wrist_flex_l	wrist_dev_l	hand_finger_flex_l
      1.99000000	     -0.03507325	     -6.28412500	     93.89739923	      0.01980584	      0.60373403	      0.40250258	     78.48276024	     -7.33943040	     -1.92772506	   -118.23616589	     22.25805067	      2.55358963	     22.88842575	     79.70100214	    -10.42090416	      1.20571580	   -115.82242480	     17.76002317	     25.02468675	     34.81420011	    -55.46127696	     -1.68162621	      0.34278776	     34.07424395	      0.96993176	     -6.00570738	     93.90932978	     -9.57953181	      1.39943460	     51.81606445	    114.21014606	     -8.43249432	     -1.93304703	     -5.65405789	     94.27407407	    -22.76059929	     25.82958522	     45.10672252	    102.67332271	    -27.82653641	     -7.70288620	    -14.42944254
      1.99250000	      0.01032876	     -6.30586326	     93.89578610	      0.01962928	      0.60641646	      0.40198479	     78.11034207	     -7.34755609	     -2.00966566	   -117.77327646	     22.28527014	      2.60515711	     22.94651763	     79.35401964	    -10.38679504	      1.13925348	   -115.41578790	     17.75885029	     24.82381048	     34.84229338	    -55.43414752	     -1.62001280	      0.38292879	     34.28621577	      0.93047988	     -6.03376302	     92.95077044	     -9.73246876	      1.27124127	     51.81017823	    114.45977599	     -8.81416806	     -2.08214071	     -5.36903787	     93.29394735	    -22.81505504	     25.18139155	     45.43574189	    102.65242025	    -27.59176572	     -7.46082156	    -14.36636480
      1.99500000	      0.02275060	     -6.32525917	     93.88530679	      0.01962318	      0.60881125	      0.40148785	     77.80796108	     -7.34801082	     -2.06128771	   -117.39088075	     22.19042145	      2.63585067	     22.94934083	     79.04199021	    -10.34836088	      1.10066350	   -115.04477260	     17.68588189	     24.76398758	     34.83665295	    -55.33791733	     -1.60530229	      0.39220307	     34.12025272	      0.85904986	     -6.01258498	     91.97369342	     -9.95559752	      1.27733610	     51.72532911	    114.54114594	     -8.88731057	     -2.10493702	     -5.27391960	     92.48321084	    -22.99945692	     25.18486628	     45.48625222	    102.71863105	    -27.52051798	     -7.43396473	    -14.33411908
      1.99750000	      0.04346863	     -6.36136172	     93.88136025	      0.01942355	      0.61154662	      0.40093076	     77.46093421	     -7.37626476	     -2.12867277	   -116.94303402	     22.16791050	      2.67000151	     23.02001585	     78.68874941	    -10.28442657	      1.01477754	   -114.62440401	     17.69217565	     24.51316863	     34.85664076	    -55.30497856	     -1.55868045	      0.41231925	     34.37338229	      0.84106509	     -6.02448938	     90.99984856	    -10.12467769	      1.17614853	     51.72369231	    114.87070580	     -9.26533836	     -2.22327540	     -5.00115626	     91.48710251	    -23.06084993	     24.55129955	     45.80036404	    102.80474425	    -27.35507022	     -7.17605601	    -14.20665453
      2.00000000	      0.05672842	     -6.40663496	     93.87947358	      0.01944475	      0.61404977	      0.40048745	     77.17535910	     -7.37476548	     -2.19069218	   -116.53013827	     22.06078653	      2.69649954	     23.02009899	     78.38932835	    -10.25712988	      0.95546848	   -114.21619554	     17.62093653	     24.45948714	     34.84693878	    -55.19679261	     -1.54998991	      0.41360229	     34.22034835	      0.78403625	     -6.00262337	     90.04535130	    -10.35094491	      1.19046856	     51.57226850	    114.95186403	     -9.30948261	     -2.21299550	     -4.92497251	     90.70016509	    -23.23299343	     24.59216959	     45.80978762	    102.87742354	    -27.30682148	     -7.15291503	    -14.16252181
      2.00250000	      0.06780905	     -6.43213084	     93.86264866	      0.01934581	      0.61662105	      0.39993732	     76.86724917	     -7.38475912	     -2.24896831	   -116.12901567	     21.96895034	      2.70317164	     23.02843415	     78.04787042	    -10.21338542	      0.89120579	   -113.81617570	     17.58001905	     24.34503317	     34.83927443	    -55.12219736	     -1.54056422	      0.43148712	     34.20389923	      0.77348073	     -5.99306101	     89.02163233	    -10.58645056	      1.18671836	     51.53409272	    115.09175113	     -9.42835091	     -2.25514371	     -4.85879874	     89.82120884	    -23.37079222	     24.46792816	     45.92420167	    102.89909793	    -27.30737010	     -7.09965556	    -14.10993582
      2.00500000	      0.07527904	     -6.46658209	     93.83666385	      0.01905117	      0.61946918	      0.39936765	     76.52492969	     -7.39219556	     -2.29305805	   -115.67446201	     21.89659321	      2.66367332	     23.09364506	     77.67024169	    -10.15874915	      0.76176006	   -113.38137168	     17.59941742	     24.00942308	     34.84155712	    -55.10299325	     -1.50519062	      0.44833480	     34.51520110	      0.77124087	     -5.99512503	     88.06072952	    -10.76041027	      1.13961824	     51.48905121	    115.55955178	     -9.77542369	     -2.30083863	     -4.66992125	     88.77571334	    -23.39352697	     23.75072538	     46.23416209	    102.93819546	    -27.20432949	     -6.83894953	    -13.86171864
      2.00750000	      0.08477542	     -6.49697432	     93.81417011	      0.01897881	      0.62200624	      0.39884739	     76.23643221	     -7.38649501	     -2.34916949	   -115.28443627	     21.78042769	      2.67184841	     23.09642038	     77.34681096	    -10.12756100	      0.70611095	   -112.97878644	     17.52202836	     23.93575421	     34.82898067	    -55.00185763	     -1.49935034	      0.46204336	     34.35509191	      0.73028301	     -5.97293700	     87.06724788	    -10.98323146	      1.17026488	     51.33884253	    115.69522784	     -9.81715912	     -2.28231435	     -4.59702083	     87.91093688	    -23.55342207	     23.74054530	     46.26537590	    102.99825303	    -27.14442689	     -6.80865685	    -13.77386667
      2.01000000	      0.09350678	     -6.52489485	     93.78533884	      0.01885078	      0.62470064	      0.39827153	     75.91778149	     -7.36777369	     -2.39946012	   -114.86583545	     21.67722345	      2.64285766	     23.10272783	     76.99518652	    -10.10622981	      0.62184372	   -112.55976401	     17.47607354	     23.79572173	     34.81821849	    -54.93572495	     -1.49834771	      0.49184445	     34.36947640	      0.73500503	     -5.96841351	     86.04283972	    -11.23370672	      1.19469831	     51.26409683	    115.91152223	     -9.92080190	     -2.29202827	     -4.55257192	     86.97562104	    -23.63735119	     23.51775123	     46.39242218	    102.94930679	    -27.11450890	     -6.73154890	    -13.67386244
      2.01250000	      0.10435653	     -6.54891453	     93.73969973	      0.01865359	      0.62747660	      0.39767621	     75.58044601	     -7.33029367	     -2.43746788	   -114.43635893	     21.58093259	      2.58753403	     23.11045914	     76.62964306	    -10.08919562	      0.52480747	   -112.14451516	     17.42861038	     23.61111022	     34.80755420	    -54.88410012	     -1.49052501	      0.54194563	     34.43864757	      0.73426483	     -5.97726507	     85.03812552	    -11.47640093	      1.22795727	     51.17351317	    116.20237421	    -10.04033332	     -2.27619038	     -4.53313338	     85.99541031	    -23.68979276	     23.17853442	     46.54131683	    102.82564773	    -27.02165399	     -6.61078109	    -13.53384172
      2.01500000	      0.12063853	     -6.57042344	     93.70029813	      0.01851713	      0.63027859	      0.39710793	     75.23493326	     -7.28376843	     -2.48471650	   -113.98526716	     21.49180123	      2.52978336	     23.11490038	     76.26994338	    -10.08341510	      0.43273462	   -111.71655422	     17.36250314	     23.42646741	     34.79684824	    -54.83398568	     -1.48195389	      0.59185863	     34.48579245	      0.71130509	     -5.98508092	     84.04293198	    -11.71458470	      1.26741451	     51.04277593	    116.52065697	    -10.13026243	     -2.22683120	     -4.54266864	     85.02059552	    -23.73896267	     22.84693175	     46.68516306	    102.67026031	    -26.84984541	     -6.48540476	    -13.37517121
      2.01750000	      0.13967005	     -6.58615165	     93.66384934	      0.01841154	      0.63310005	      0.39653114	     74.87280725	     -7.23280963	     -2.53867350	   -113.52514716	     21.41924848	      2.47028393	     23.11565308	     75.91180324	    -10.07418740	      0.35603667	   -111.28739061	     17.28074362	     23.24700453	     34.78798004	    -54.78953276	     -1.47040607	      0.64835289	     34.53874726	      0.68833603	     -5.99427333	     83.04809184	    -11.95626024	      1.30361087	     50.90443069	    116.85842067	    -10.18805804	     -2.16107855	     -4.58977962	     84.03718622	    -23.78473238	     22.51900139	     46.81858994	    102.47641309	    -26.62122009	     -6.35421035	    -13.21883732
      2.02000000	      0.16586024	     -6.59509439	     93.63580368	      0.01830017	      0.63596217	      0.39591910	     74.48675372	     -7.17856494	     -2.59893088	   -113.04953071	     21.36571064	      2.40829884	     23.11260902	     75.55026585	    -10.06157709	      0.28961516	   -110.85999967	     17.18459191	     23.06407385	     34.78266586	    -54.75558219	     -1.44785647	      0.70852256	     34.60804750	      0.66312756	     -6.00421263	     82.04579271	    -12.19787419	      1.33052172	     50.76160555	    117.23104996	    -10.21015826	     -2.07802544	     -4.68467742	     83.05323881	    -23.82156168	     22.17449646	     46.95368073	    102.23821455	    -26.32545158	     -6.21354881	    -13.06663810
      2.02250000	      0.19181645	     -6.59745256	     93.61266519	      0.01823705	      0.63883756	      0.39533542	     74.09006741	     -7.13768706	     -2.67191724	   -112.56419867	     21.32620360	      2.35265400	     23.10413809	     75.18584064	    -10.03385805	      0.23919927	   -110.42576618	     17.07316734	     22.88799549	     34.78045735	    -54.72757609	     -1.42294725	      0.77561760	     34.67087398	      0.63889717	     -6.00958387	     81.03610517	    -12.43339340	      1.34565160	     50.61622716	    117.61400358	    -10.18787021	     -1.98523699	     -4.82497782	     82.07397625	    -23.86153477	     21.85539852	     47.07253797	    101.98192806	    -25.98549748	     -6.08127109	    -12.93634439
      2.02500000	      0.21092761	     -6.71020347	     93.59852440	      0.01811410	      0.64165211	      0.39500690	     73.81728109	     -7.11480514	     -2.72381041	   -112.02735385	     21.26167444	      2.35790794	     23.08981216	     74.93299966	     -9.99287783	      0.16823985	   -109.92879482	     16.99925235	     22.84827760	     34.76938902	    -54.59410865	     -1.40363250	      0.80015668	     34.74556248	      0.62252789	     -6.00411227	     80.16007783	    -12.62631201	      1.36222588	     50.23134962	    117.70314462	    -10.14575213	     -1.87584951	     -4.85075054	     81.27689584	    -23.92605700	     21.91788694	     46.89893017	    101.91649905	    -25.87034046	     -6.00278952	    -12.89968585
